<svg xmlns="http://www.w3.org/2000/svg" viewBox="40 18 40 54">
  <!-- Logo Mini Mondi — Fiore singolo stile Liberty in rosa -->

  <!-- Stelo curvo -->
  <path d="M60 65 Q58 52 60 42" fill="none" stroke="#7A9E7E" stroke-width="3.5" stroke-linecap="round"/>

  <!-- Foglie sullo stelo -->
  <path d="M58 52 Q48 44 55 40 Q50 47 58 52Z" fill="#7A9E7E"/>
  <path d="M62 58 Q72 50 66 45 Q70 52 62 58Z" fill="#6B8E6F"/>

  <!-- Fiore — Rosa cipria -->
  <ellipse cx="56" cy="33" rx="10" ry="7" fill="#E8A0A8" opacity="0.85" transform="rotate(-15 56 33)"/>
  <ellipse cx="64" cy="30" rx="10" ry="7" fill="#E8A0A8" opacity="0.75" transform="rotate(30 64 30)"/>
  <ellipse cx="65" cy="40" rx="10" ry="7" fill="#DDA0A6" opacity="0.8" transform="rotate(75 65 40)"/>
  <ellipse cx="54" cy="27" rx="9" ry="6.5" fill="#F0B8BE" opacity="0.7" transform="rotate(-45 54 27)"/>
  <ellipse cx="52" cy="40" rx="9" ry="6.5" fill="#E8A0A8" opacity="0.7" transform="rotate(45 52 40)"/>
  <circle cx="59" cy="34" r="4" fill="#F5E8A0"/>
</svg>
